<?xml version="1.0" encoding="us-ascii" standalone="no"?><svg xmlns="http://www.w3.org/2000/svg" xmlns:xlink="http://www.w3.org/1999/xlink" contentStyleType="text/css" height="1418.4px" preserveAspectRatio="none" style="width:1439px;height:1418px;background:#FFFFFF;" version="1.1" viewBox="0 0 1439 1418" width="1439.2px" zoomAndPan="magnify"><defs/><g><text fill="#000000" font-family="sans-serif" font-size="11.2" font-weight="bold" lengthAdjust="spacing" textLength="88.8" x="672" y="35.5266">AuthApi service</text><rect fill="#DDDDDD" height="1360.5016" style="stroke:#181818;stroke-width:0.4000000000000001;" width="268" x="241.6" y="47.9375"/><text fill="#000000" font-family="sans-serif" font-size="10.4" font-weight="bold" lengthAdjust="spacing" textLength="16.8" x="367.2" y="59.1602">Api</text><rect fill="#DDDDDD" height="1360.5016" style="stroke:#181818;stroke-width:0.4000000000000001;" width="164" x="596.4" y="47.9375"/><text fill="#000000" font-family="sans-serif" font-size="10.4" font-weight="bold" lengthAdjust="spacing" textLength="46.4" x="655.2" y="59.1602">Schemas</text><rect fill="#DDDDDD" height="1360.5016" style="stroke:#181818;stroke-width:0.4000000000000001;" width="519.6" x="778" y="47.9375"/><text fill="#000000" font-family="sans-serif" font-size="10.4" font-weight="bold" lengthAdjust="spacing" textLength="43.2" x="1016.2" y="59.1602">Services</text><rect fill="#DDDDDD" height="1360.5016" style="stroke:#181818;stroke-width:0.4000000000000001;" width="109.6" x="1315.2" y="47.9375"/><text fill="#000000" font-family="sans-serif" font-size="10.4" font-weight="bold" lengthAdjust="spacing" textLength="93.6" x="1323.2" y="59.1602">Models &#171;Postgres&#187;</text><rect fill="#008000" height="528.6859" style="stroke:#181818;stroke-width:0.8000000000000002;" width="8" x="1077.6" y="472.4938"/><rect fill="#008000" height="136.3641" style="stroke:#181818;stroke-width:0.8000000000000002;" width="8" x="1077.6" y="1182.5766"/><rect fill="#008000" height="735.7844" style="stroke:#181818;stroke-width:0.8000000000000002;" width="8" x="1222" y="638.0219"/><line style="stroke:#181818;stroke-width:0.4000000000000001;stroke-dasharray:5.0,5.0;" x1="20.8" x2="20.8" y1="110.0344" y2="1413.2391"/><line style="stroke:#181818;stroke-width:0.4000000000000001;stroke-dasharray:5.0,5.0;" x1="309.6" x2="309.6" y1="110.0344" y2="1413.2391"/><line style="stroke:#181818;stroke-width:0.4000000000000001;stroke-dasharray:5.0,5.0;" x1="444" x2="444" y1="110.0344" y2="1413.2391"/><line style="stroke:#181818;stroke-width:0.4000000000000001;stroke-dasharray:5.0,5.0;" x1="634.8" x2="634.8" y1="110.0344" y2="1413.2391"/><line style="stroke:#181818;stroke-width:0.4000000000000001;stroke-dasharray:5.0,5.0;" x1="717.2" x2="717.2" y1="110.0344" y2="1413.2391"/><line style="stroke:#181818;stroke-width:0.4000000000000001;stroke-dasharray:5.0,5.0;" x1="836.4" x2="836.4" y1="110.0344" y2="1413.2391"/><line style="stroke:#181818;stroke-width:0.4000000000000001;stroke-dasharray:5.0,5.0;" x1="1081.6" x2="1081.6" y1="110.0344" y2="1413.2391"/><line style="stroke:#181818;stroke-width:0.4000000000000001;stroke-dasharray:5.0,5.0;" x1="1225.6" x2="1225.6" y1="110.0344" y2="1413.2391"/><line style="stroke:#181818;stroke-width:0.4000000000000001;stroke-dasharray:5.0,5.0;" x1="1332" x2="1332" y1="110.0344" y2="1413.2391"/><line style="stroke:#181818;stroke-width:0.4000000000000001;stroke-dasharray:5.0,5.0;" x1="1388" x2="1388" y1="110.0344" y2="1413.2391"/><text fill="#000000" font-family="sans-serif" font-size="11.2" lengthAdjust="spacing" textLength="28.8" x="4" y="107.2234">Client</text><ellipse cx="20.8" cy="53.9375" fill="#E2E2F0" rx="6.4" ry="6.4" style="stroke:#181818;stroke-width:0.4000000000000001;"/><path d="M20.8,60.3375 L20.8,81.9375 M10.4,66.7375 L31.2,66.7375 M20.8,81.9375 L10.4,93.9375 M20.8,81.9375 L31.2,93.9375 " fill="none" style="stroke:#181818;stroke-width:0.4000000000000001;"/><rect fill="#E2E2F0" height="40.9938" rx="2" ry="2" style="stroke:#181818;stroke-width:0.4000000000000001;" width="97.6" x="260.8" y="68.2406"/><text fill="#000000" font-family="sans-serif" font-size="11.2" lengthAdjust="spacing" textLength="39.2" x="290" y="85.9266">UserApi</text><text fill="#000000" font-family="sans-serif" font-size="11.2" font-style="italic" lengthAdjust="spacing" textLength="86.4" x="266.4" y="100.8234">&#171;routes /users/*&#187;</text><rect fill="#E2E2F0" height="40.9938" rx="2" ry="2" style="stroke:#181818;stroke-width:0.4000000000000001;" width="92" x="398.4" y="68.2406"/><text fill="#000000" font-family="sans-serif" font-size="11.2" lengthAdjust="spacing" textLength="39.2" x="424.8" y="85.9266">AuthApi</text><text fill="#000000" font-family="sans-serif" font-size="11.2" font-style="italic" lengthAdjust="spacing" textLength="80.8" x="404" y="100.8234">&#171;routes /auth/*&#187;</text><text fill="#000000" font-family="sans-serif" font-size="11.2" lengthAdjust="spacing" textLength="65.6" x="599.6" y="107.2234">UserRequest</text><ellipse cx="634.8" cy="82.3375" fill="#E2E2F0" rx="9.6" ry="9.6" style="stroke:#181818;stroke-width:0.4000000000000001;"/><line style="stroke:#181818;stroke-width:0.4000000000000001;" x1="625.2" x2="644.4" y1="93.5375" y2="93.5375"/><text fill="#000000" font-family="sans-serif" font-size="11.2" lengthAdjust="spacing" textLength="74.4" x="678" y="107.2234">UserResponse</text><ellipse cx="717.6" cy="82.3375" fill="#E2E2F0" rx="9.6" ry="9.6" style="stroke:#181818;stroke-width:0.4000000000000001;"/><line style="stroke:#181818;stroke-width:0.4000000000000001;" x1="708" x2="727.2" y1="93.5375" y2="93.5375"/><rect fill="#E2E2F0" height="26.0969" rx="2" ry="2" style="stroke:#181818;stroke-width:0.4000000000000001;" width="79.2" x="797.2" y="83.1375"/><text fill="#000000" font-family="sans-serif" font-size="11.2" lengthAdjust="spacing" textLength="68" x="802.8" y="100.8234">UserManager</text><rect fill="#E2E2F0" height="26.0969" rx="2" ry="2" style="stroke:#181818;stroke-width:0.4000000000000001;" width="104" x="1029.6" y="83.1375"/><text fill="#000000" font-family="sans-serif" font-size="11.2" lengthAdjust="spacing" textLength="92.8" x="1035.2" y="100.8234">JWT.accessToken</text><rect fill="#E2E2F0" height="26.0969" rx="2" ry="2" style="stroke:#181818;stroke-width:0.4000000000000001;" width="104.8" x="1173.6" y="83.1375"/><text fill="#000000" font-family="sans-serif" font-size="11.2" lengthAdjust="spacing" textLength="93.6" x="1179.2" y="100.8234">JWT.refreshToken</text><text fill="#000000" font-family="sans-serif" font-size="11.2" lengthAdjust="spacing" textLength="23.2" x="1318.4" y="107.2234">User</text><ellipse cx="1332.4" cy="82.3375" fill="#E2E2F0" rx="9.6" ry="9.6" style="stroke:#181818;stroke-width:0.4000000000000001;"/><line style="stroke:#181818;stroke-width:0.4000000000000001;" x1="1322.8" x2="1342" y1="93.5375" y2="93.5375"/><text fill="#000000" font-family="sans-serif" font-size="11.2" lengthAdjust="spacing" textLength="62.4" x="1354.4" y="107.2234">LoginHistory</text><ellipse cx="1388" cy="82.3375" fill="#E2E2F0" rx="9.6" ry="9.6" style="stroke:#181818;stroke-width:0.4000000000000001;"/><line style="stroke:#181818;stroke-width:0.4000000000000001;" x1="1378.4" x2="1397.6" y1="93.5375" y2="93.5375"/><rect fill="#008000" height="528.6859" style="stroke:#181818;stroke-width:0.8000000000000002;" width="8" x="1077.6" y="472.4938"/><rect fill="#008000" height="136.3641" style="stroke:#181818;stroke-width:0.8000000000000002;" width="8" x="1077.6" y="1182.5766"/><rect fill="#008000" height="735.7844" style="stroke:#181818;stroke-width:0.8000000000000002;" width="8" x="1222" y="638.0219"/><rect fill="#EEEEEE" height="2.4" style="stroke:#EEEEEE;stroke-width:0.8000000000000002;" width="1433.6" x="0" y="135.3508"/><line style="stroke:#000000;stroke-width:0.8000000000000002;" x1="0" x2="1433.6" y1="135.3508" y2="135.3508"/><line style="stroke:#000000;stroke-width:0.8000000000000002;" x1="0" x2="1433.6" y1="137.7508" y2="137.7508"/><rect fill="#EEEEEE" height="20.2328" style="stroke:#000000;stroke-width:1.6000000000000003;" width="60.8" x="686.4" y="126.0344"/><text fill="#000000" font-family="sans-serif" font-size="10.4" font-weight="bold" lengthAdjust="spacing" textLength="46.4" x="691.2" y="140.457">Registers</text><polygon fill="#181818" points="434.8,183.5328,442.8,186.7328,434.8,189.9328,438,186.7328" style="stroke:#181818;stroke-width:0.8000000000000002;"/><line style="stroke:#181818;stroke-width:0.8000000000000002;" x1="20.8" x2="439.6" y1="186.7328" y2="186.7328"/><text fill="#000000" font-family="sans-serif" font-size="10.4" font-weight="bold" lengthAdjust="spacing" textLength="104" x="26.4" y="168.6898">POST /auth/registers</text><text fill="#000000" font-family="sans-serif" font-size="10.4" lengthAdjust="spacing" textLength="3.2" x="130.4" y="168.6898">&#160;</text><text fill="#000000" font-family="sans-serif" font-size="10.4" lengthAdjust="spacing" textLength="235.2" x="26.4" y="182.5227">-d {username, email, password, confirm_password}</text><polygon fill="#181818" points="625.2,208.5656,633.2,211.7656,625.2,214.9656,628.4,211.7656" style="stroke:#181818;stroke-width:0.8000000000000002;"/><line style="stroke:#181818;stroke-width:0.8000000000000002;" x1="444.4" x2="630" y1="211.7656" y2="211.7656"/><text fill="#000000" font-family="sans-serif" font-size="10.4" lengthAdjust="spacing" textLength="171.2" x="450" y="207.5555">validate_data = validate(request data)</text><polygon fill="#181818" points="827.2,233.5984,835.2,236.7984,827.2,239.9984,830.4,236.7984" style="stroke:#181818;stroke-width:0.8000000000000002;"/><line style="stroke:#181818;stroke-width:0.8000000000000002;" x1="444.4" x2="832" y1="236.7984" y2="236.7984"/><text fill="#000000" font-family="sans-serif" font-size="10.4" lengthAdjust="spacing" textLength="29.6" x="450" y="232.5883">user =</text><text fill="#000000" font-family="sans-serif" font-size="10.4" font-weight="bold" lengthAdjust="spacing" textLength="59.2" x="482.8" y="232.5883">create_user</text><text fill="#000000" font-family="sans-serif" font-size="10.4" lengthAdjust="spacing" textLength="66.4" x="542" y="232.5883">(validate_data)</text><line style="stroke:#181818;stroke-width:0.8000000000000002;" x1="836.8" x2="870.4" y1="261.8313" y2="261.8313"/><line style="stroke:#181818;stroke-width:0.8000000000000002;" x1="870.4" x2="870.4" y1="261.8313" y2="272.2313"/><line style="stroke:#181818;stroke-width:0.8000000000000002;" x1="837.6" x2="870.4" y1="272.2313" y2="272.2313"/><polygon fill="#181818" points="845.6,269.0313,837.6,272.2313,845.6,275.4313,842.4,272.2313" style="stroke:#181818;stroke-width:0.8000000000000002;"/><text fill="#000000" font-family="sans-serif" font-size="10.4" lengthAdjust="spacing" textLength="92.8" x="842.4" y="257.6211">hashed_password =</text><text fill="#000000" font-family="sans-serif" font-size="10.4" font-weight="bold" lengthAdjust="spacing" textLength="137.6" x="938.4" y="257.6211">_hash_password(password)</text><polygon fill="#181818" points="1322.8,294.0641,1330.8,297.2641,1322.8,300.4641,1326,297.2641" style="stroke:#181818;stroke-width:0.8000000000000002;"/><line style="stroke:#181818;stroke-width:0.8000000000000002;stroke-dasharray:2.0,2.0;" x1="836.8" x2="1327.6" y1="297.2641" y2="297.2641"/><text fill="#000000" font-family="sans-serif" font-size="10.4" font-weight="bold" lengthAdjust="spacing" textLength="32" x="842.4" y="293.0539">create</text><text fill="#000000" font-family="sans-serif" font-size="10.4" lengthAdjust="spacing" textLength="194.4" x="877.6" y="293.0539">User(username, email, hashed_password)</text><polygon fill="#181818" points="708,319.0969,716,322.2969,708,325.4969,711.2,322.2969" style="stroke:#181818;stroke-width:0.8000000000000002;"/><line style="stroke:#181818;stroke-width:0.8000000000000002;" x1="444.4" x2="712.8" y1="322.2969" y2="322.2969"/><text fill="#000000" font-family="sans-serif" font-size="10.4" lengthAdjust="spacing" textLength="94.4" x="450" y="318.0867">response_data(user)</text><polygon fill="#181818" points="29.6,344.1297,21.6,347.3297,29.6,350.5297,26.4,347.3297" style="stroke:#181818;stroke-width:0.8000000000000002;"/><line style="stroke:#181818;stroke-width:0.8000000000000002;" x1="24.8" x2="443.6" y1="347.3297" y2="347.3297"/><text fill="#000000" font-family="sans-serif" font-size="10.4" font-weight="bold" lengthAdjust="spacing" textLength="60" x="34.4" y="343.1195">201 Created</text><text fill="#000000" font-family="sans-serif" font-size="10.4" lengthAdjust="spacing" textLength="109.6" x="97.6" y="343.1195">-d {id, username, email}</text><rect fill="#EEEEEE" height="2.4" style="stroke:#EEEEEE;stroke-width:0.8000000000000002;" width="1433.6" x="0" y="371.0461"/><line style="stroke:#000000;stroke-width:0.8000000000000002;" x1="0" x2="1433.6" y1="371.0461" y2="371.0461"/><line style="stroke:#000000;stroke-width:0.8000000000000002;" x1="0" x2="1433.6" y1="373.4461" y2="373.4461"/><rect fill="#EEEEEE" height="20.2328" style="stroke:#000000;stroke-width:1.6000000000000003;" width="43.2" x="695.2" y="361.7297"/><text fill="#000000" font-family="sans-serif" font-size="10.4" font-weight="bold" lengthAdjust="spacing" textLength="28.8" x="700" y="376.1523">Login</text><polygon fill="#181818" points="434.8,419.2281,442.8,422.4281,434.8,425.6281,438,422.4281" style="stroke:#181818;stroke-width:0.8000000000000002;"/><line style="stroke:#181818;stroke-width:0.8000000000000002;" x1="20.8" x2="439.6" y1="422.4281" y2="422.4281"/><text fill="#000000" font-family="sans-serif" font-size="10.4" font-weight="bold" lengthAdjust="spacing" textLength="86.4" x="26.4" y="404.3852">POST /auth/login</text><text fill="#000000" font-family="sans-serif" font-size="10.4" lengthAdjust="spacing" textLength="3.2" x="112.8" y="404.3852">&#160;</text><text fill="#000000" font-family="sans-serif" font-size="10.4" lengthAdjust="spacing" textLength="90.4" x="26.4" y="418.218">-d {login, password}</text><polygon fill="#181818" points="827.2,444.2609,835.2,447.4609,827.2,450.6609,830.4,447.4609" style="stroke:#181818;stroke-width:0.8000000000000002;"/><line style="stroke:#181818;stroke-width:0.8000000000000002;" x1="444.4" x2="832" y1="447.4609" y2="447.4609"/><text fill="#000000" font-family="sans-serif" font-size="10.4" lengthAdjust="spacing" textLength="29.6" x="450" y="443.2508">user =</text><text fill="#000000" font-family="sans-serif" font-size="10.4" font-weight="bold" lengthAdjust="spacing" textLength="63.2" x="482.8" y="443.2508">authenticate</text><text fill="#000000" font-family="sans-serif" font-size="10.4" lengthAdjust="spacing" textLength="141.6" x="546" y="443.2508">(credentials={login, password})</text><polygon fill="#181818" points="1068,469.2938,1076,472.4938,1068,475.6938,1071.2,472.4938" style="stroke:#181818;stroke-width:0.8000000000000002;"/><line style="stroke:#181818;stroke-width:0.8000000000000002;" x1="444.4" x2="1072.8" y1="472.4938" y2="472.4938"/><text fill="#000000" font-family="sans-serif" font-size="10.4" lengthAdjust="spacing" textLength="74.4" x="450" y="468.2836">access_token =</text><text fill="#000000" font-family="sans-serif" font-size="10.4" font-weight="bold" lengthAdjust="spacing" textLength="87.2" x="527.6" y="468.2836">write_token(user)</text><path d="M976.8,482.8938 L976.8,614.8938 L1186.4,614.8938 L1186.4,490.8938 L1178.4,482.8938 L976.8,482.8938 " fill="#FEFFDD" style="stroke:#181818;stroke-width:0.4000000000000001;"/><path d="M1178.4,482.8938 L1178.4,490.8938 L1186.4,490.8938 L1178.4,482.8938 " fill="#FEFFDD" style="stroke:#181818;stroke-width:0.4000000000000001;"/><text fill="#000000" font-family="sans-serif" font-size="10.4" lengthAdjust="spacing" textLength="3.2" x="981.6" y="498.1164">{</text><text fill="#000000" font-family="sans-serif" font-size="10.4" lengthAdjust="spacing" textLength="180" x="994.4" y="511.9492">"header": {"alg":"HS256", "typ":"JWT"},</text><text fill="#000000" font-family="sans-serif" font-size="10.4" lengthAdjust="spacing" textLength="53.6" x="994.4" y="525.782">"payload": {</text><text fill="#000000" font-family="sans-serif" font-size="10.4" lengthAdjust="spacing" textLength="69.6" x="1007.2" y="539.6148">"user": "UUID",</text><text fill="#000000" font-family="sans-serif" font-size="10.4" lengthAdjust="spacing" textLength="53.6" x="1007.2" y="553.4477">"iat": now(),</text><text fill="#000000" font-family="sans-serif" font-size="10.4" lengthAdjust="spacing" textLength="103.2" x="1007.2" y="567.2805">"exp": now() + 10 sec,</text><text fill="#000000" font-family="sans-serif" font-size="10.4" lengthAdjust="spacing" textLength="84.8" x="1007.2" y="581.1133">"role": "guest" ???</text><text fill="#000000" font-family="sans-serif" font-size="10.4" lengthAdjust="spacing" textLength="3.2" x="994.4" y="594.9461">}</text><text fill="#000000" font-family="sans-serif" font-size="10.4" lengthAdjust="spacing" textLength="3.2" x="981.6" y="608.7789">}</text><polygon fill="#181818" points="1212.4,634.8219,1220.4,638.0219,1212.4,641.2219,1215.6,638.0219" style="stroke:#181818;stroke-width:0.8000000000000002;"/><line style="stroke:#181818;stroke-width:0.8000000000000002;" x1="444.4" x2="1217.2" y1="638.0219" y2="638.0219"/><text fill="#000000" font-family="sans-serif" font-size="10.4" lengthAdjust="spacing" textLength="72" x="450" y="633.8117">refresh_token =</text><text fill="#000000" font-family="sans-serif" font-size="10.4" font-weight="bold" lengthAdjust="spacing" textLength="87.2" x="525.2" y="633.8117">write_token(user)</text><path d="M1120.8,648.4219 L1120.8,766.8219 L1330.4,766.8219 L1330.4,656.4219 L1322.4,648.4219 L1120.8,648.4219 " fill="#FEFFDD" style="stroke:#181818;stroke-width:0.4000000000000001;"/><path d="M1322.4,648.4219 L1322.4,656.4219 L1330.4,656.4219 L1322.4,648.4219 " fill="#FEFFDD" style="stroke:#181818;stroke-width:0.4000000000000001;"/><text fill="#000000" font-family="sans-serif" font-size="10.4" lengthAdjust="spacing" textLength="3.2" x="1125.6" y="663.6445">{</text><text fill="#000000" font-family="sans-serif" font-size="10.4" lengthAdjust="spacing" textLength="180" x="1138.4" y="677.4773">"header": {"alg":"HS256", "typ":"JWT"},</text><text fill="#000000" font-family="sans-serif" font-size="10.4" lengthAdjust="spacing" textLength="53.6" x="1138.4" y="691.3102">"payload": {</text><text fill="#000000" font-family="sans-serif" font-size="10.4" lengthAdjust="spacing" textLength="69.6" x="1151.2" y="705.143">"user": "UUID",</text><text fill="#000000" font-family="sans-serif" font-size="10.4" lengthAdjust="spacing" textLength="53.6" x="1151.2" y="718.9758">"iat": now(),</text><text fill="#000000" font-family="sans-serif" font-size="10.4" lengthAdjust="spacing" textLength="100.8" x="1151.2" y="732.8086">"exp": now() + 1 year,</text><text fill="#000000" font-family="sans-serif" font-size="10.4" lengthAdjust="spacing" textLength="3.2" x="1138.4" y="746.6414">}</text><text fill="#000000" font-family="sans-serif" font-size="10.4" lengthAdjust="spacing" textLength="3.2" x="1125.6" y="760.4742">}</text><polygon fill="#181818" points="827.2,786.5172,835.2,789.7172,827.2,792.9172,830.4,789.7172" style="stroke:#181818;stroke-width:0.8000000000000002;"/><line style="stroke:#181818;stroke-width:0.8000000000000002;stroke-dasharray:2.0,2.0;" x1="444.4" x2="832" y1="789.7172" y2="789.7172"/><text fill="#000000" font-family="sans-serif" font-size="10.4" font-weight="bold" lengthAdjust="spacing" textLength="204" x="450" y="785.507">save_login_history(user, &lt;request data&gt;)</text><polygon fill="#181818" points="1378.4,811.55,1386.4,814.75,1378.4,817.95,1381.6,814.75" style="stroke:#181818;stroke-width:0.8000000000000002;"/><line style="stroke:#181818;stroke-width:0.8000000000000002;stroke-dasharray:2.0,2.0;" x1="836.8" x2="1383.2" y1="814.75" y2="814.75"/><text fill="#000000" font-family="sans-serif" font-size="10.4" lengthAdjust="spacing" textLength="116" x="842.4" y="810.5398">create LoginHistory(data)</text><polygon fill="#181818" points="29.6,836.5828,21.6,839.7828,29.6,842.9828,26.4,839.7828" style="stroke:#181818;stroke-width:0.8000000000000002;"/><line style="stroke:#181818;stroke-width:0.8000000000000002;" x1="24.8" x2="443.6" y1="839.7828" y2="839.7828"/><text fill="#000000" font-family="sans-serif" font-size="10.4" lengthAdjust="spacing" textLength="185.6" x="34.4" y="835.5727">200 OK -d {access token, refresh token}</text><rect fill="#EEEEEE" height="2.4" style="stroke:#EEEEEE;stroke-width:0.8000000000000002;" width="1433.6" x="0" y="863.4992"/><line style="stroke:#000000;stroke-width:0.8000000000000002;" x1="0" x2="1433.6" y1="863.4992" y2="863.4992"/><line style="stroke:#000000;stroke-width:0.8000000000000002;" x1="0" x2="1433.6" y1="865.8992" y2="865.8992"/><rect fill="#EEEEEE" height="20.2328" style="stroke:#000000;stroke-width:1.6000000000000003;" width="60" x="686.8" y="854.1828"/><text fill="#000000" font-family="sans-serif" font-size="10.4" font-weight="bold" lengthAdjust="spacing" textLength="45.6" x="691.6" y="868.6055">Requests</text><polygon fill="#181818" points="300,897.8484,308,901.0484,300,904.2484,303.2,901.0484" style="stroke:#181818;stroke-width:0.8000000000000002;"/><line style="stroke:#181818;stroke-width:0.8000000000000002;" x1="20.8" x2="304.8" y1="901.0484" y2="901.0484"/><text fill="#000000" font-family="sans-serif" font-size="10.4" font-weight="bold" lengthAdjust="spacing" textLength="72.8" x="26.4" y="896.8383">GET /users/me</text><text fill="#000000" font-family="sans-serif" font-size="10.4" lengthAdjust="spacing" textLength="193.6" x="102.4" y="896.8383">-h Authorization "bearer &lt;access_token&gt;"</text><polygon fill="#181818" points="1068,922.8813,1076,926.0813,1068,929.2813,1071.2,926.0813" style="stroke:#181818;stroke-width:0.8000000000000002;"/><line style="stroke:#181818;stroke-width:0.8000000000000002;" x1="309.6" x2="1072.8" y1="926.0813" y2="926.0813"/><text fill="#000000" font-family="sans-serif" font-size="10.4" lengthAdjust="spacing" textLength="29.6" x="315.2" y="921.8711">user =</text><text fill="#000000" font-family="sans-serif" font-size="10.4" font-weight="bold" lengthAdjust="spacing" textLength="130.4" x="348" y="921.8711">read_token(access_token)</text><polygon fill="#181818" points="708,947.9141,716,951.1141,708,954.3141,711.2,951.1141" style="stroke:#181818;stroke-width:0.8000000000000002;"/><line style="stroke:#181818;stroke-width:0.8000000000000002;" x1="309.6" x2="712.8" y1="951.1141" y2="951.1141"/><text fill="#000000" font-family="sans-serif" font-size="10.4" lengthAdjust="spacing" textLength="94.4" x="315.2" y="946.9039">response_data(user)</text><polygon fill="#181818" points="29.6,972.9469,21.6,976.1469,29.6,979.3469,26.4,976.1469" style="stroke:#181818;stroke-width:0.8000000000000002;"/><line style="stroke:#181818;stroke-width:0.8000000000000002;" x1="24.8" x2="308.8" y1="976.1469" y2="976.1469"/><text fill="#000000" font-family="sans-serif" font-size="10.4" lengthAdjust="spacing" textLength="124.8" x="34.4" y="971.9367">200 OK -d {response_data}</text><polygon fill="#181818" points="1072,997.9797,1080,1001.1797,1072,1004.3797,1075.2,1001.1797" style="stroke:#181818;stroke-width:0.8000000000000002;"/><line style="stroke:#181818;stroke-width:0.8000000000000002;stroke-dasharray:2.0,2.0;" x1="961.6" x2="1076.8" y1="1001.1797" y2="1001.1797"/><text fill="#000000" font-family="sans-serif" font-size="10.4" font-weight="bold" lengthAdjust="spacing" textLength="100.8" x="967.2" y="996.9695">Expire access token</text><line style="stroke:#A80036;stroke-width:1.6000000000000003;" x1="1074.4" x2="1088.8" y1="993.9797" y2="1008.3797"/><line style="stroke:#A80036;stroke-width:1.6000000000000003;" x1="1074.4" x2="1088.8" y1="1008.3797" y2="993.9797"/><polygon fill="#181818" points="300,1043.0125,308,1046.2125,300,1049.4125,303.2,1046.2125" style="stroke:#181818;stroke-width:0.8000000000000002;"/><line style="stroke:#181818;stroke-width:0.8000000000000002;" x1="20.8" x2="304.8" y1="1046.2125" y2="1046.2125"/><text fill="#000000" font-family="sans-serif" font-size="10.4" font-weight="bold" lengthAdjust="spacing" textLength="72.8" x="26.4" y="1042.0023">GET /users/me</text><text fill="#000000" font-family="sans-serif" font-size="10.4" lengthAdjust="spacing" textLength="193.6" x="102.4" y="1042.0023">-h Authorization "bearer &lt;access_token&gt;"</text><polygon fill="#181818" points="1072,1068.0453,1080,1071.2453,1072,1074.4453,1075.2,1071.2453" style="stroke:#181818;stroke-width:0.8000000000000002;"/><line style="stroke:#181818;stroke-width:0.8000000000000002;" x1="309.6" x2="1076.8" y1="1071.2453" y2="1071.2453"/><text fill="#000000" font-family="sans-serif" font-size="10.4" lengthAdjust="spacing" textLength="29.6" x="315.2" y="1067.0352">user =</text><text fill="#000000" font-family="sans-serif" font-size="10.4" font-weight="bold" lengthAdjust="spacing" textLength="130.4" x="348" y="1067.0352">read_token(access_token)</text><polygon fill="#181818" points="29.6,1093.0781,21.6,1096.2781,29.6,1099.4781,26.4,1096.2781" style="stroke:#181818;stroke-width:0.8000000000000002;"/><line style="stroke:#181818;stroke-width:0.8000000000000002;" x1="24.8" x2="308.8" y1="1096.2781" y2="1096.2781"/><text fill="#000000" font-family="sans-serif" font-size="10.4" lengthAdjust="spacing" textLength="163.2" x="34.4" y="1092.068">401 UNAUTHORIZED -d {message}</text><rect fill="#EEEEEE" height="2.4" style="stroke:#EEEEEE;stroke-width:0.8000000000000002;" width="1433.6" x="0" y="1119.9945"/><line style="stroke:#000000;stroke-width:0.8000000000000002;" x1="0" x2="1433.6" y1="1119.9945" y2="1119.9945"/><line style="stroke:#000000;stroke-width:0.8000000000000002;" x1="0" x2="1433.6" y1="1122.3945" y2="1122.3945"/><rect fill="#EEEEEE" height="20.2328" style="stroke:#000000;stroke-width:1.6000000000000003;" width="120.8" x="656.4" y="1110.6781"/><text fill="#000000" font-family="sans-serif" font-size="10.4" font-weight="bold" lengthAdjust="spacing" textLength="106.4" x="661.2" y="1125.1008">Refresh access token</text><polygon fill="#181818" points="434.8,1154.3438,442.8,1157.5438,434.8,1160.7438,438,1157.5438" style="stroke:#181818;stroke-width:0.8000000000000002;"/><line style="stroke:#181818;stroke-width:0.8000000000000002;" x1="20.8" x2="439.6" y1="1157.5438" y2="1157.5438"/><text fill="#000000" font-family="sans-serif" font-size="10.4" font-weight="bold" lengthAdjust="spacing" textLength="129.6" x="26.4" y="1153.3336">POST /auth/refresh_token</text><text fill="#000000" font-family="sans-serif" font-size="10.4" lengthAdjust="spacing" textLength="191.2" x="159.2" y="1153.3336">-h Authorization "bearer &lt;refresh_token&gt;"</text><polygon fill="#181818" points="1068,1179.3766,1076,1182.5766,1068,1185.7766,1071.2,1182.5766" style="stroke:#181818;stroke-width:0.8000000000000002;"/><line style="stroke:#181818;stroke-width:0.8000000000000002;stroke-dasharray:2.0,2.0;" x1="444.4" x2="1072.8" y1="1182.5766" y2="1182.5766"/><text fill="#000000" font-family="sans-serif" font-size="10.4" lengthAdjust="spacing" textLength="74.4" x="450" y="1178.3664">access_token =</text><text fill="#000000" font-family="sans-serif" font-size="10.4" font-weight="bold" lengthAdjust="spacing" textLength="87.2" x="527.6" y="1178.3664">write_token(user)</text><polygon fill="#181818" points="29.6,1204.4094,21.6,1207.6094,29.6,1210.8094,26.4,1207.6094" style="stroke:#181818;stroke-width:0.8000000000000002;"/><line style="stroke:#181818;stroke-width:0.8000000000000002;" x1="24.8" x2="443.6" y1="1207.6094" y2="1207.6094"/><text fill="#000000" font-family="sans-serif" font-size="10.4" lengthAdjust="spacing" textLength="121.6" x="34.4" y="1203.3992">200 OK -d {access_token}</text><rect fill="#EEEEEE" height="2.4" style="stroke:#EEEEEE;stroke-width:0.8000000000000002;" width="1433.6" x="0" y="1231.3258"/><line style="stroke:#000000;stroke-width:0.8000000000000002;" x1="0" x2="1433.6" y1="1231.3258" y2="1231.3258"/><line style="stroke:#000000;stroke-width:0.8000000000000002;" x1="0" x2="1433.6" y1="1233.7258" y2="1233.7258"/><rect fill="#EEEEEE" height="20.2328" style="stroke:#000000;stroke-width:1.6000000000000003;" width="49.6" x="692" y="1222.0094"/><text fill="#000000" font-family="sans-serif" font-size="10.4" font-weight="bold" lengthAdjust="spacing" textLength="35.2" x="696.8" y="1236.432">Logout</text><polygon fill="#181818" points="434.8,1265.675,442.8,1268.875,434.8,1272.075,438,1268.875" style="stroke:#181818;stroke-width:0.8000000000000002;"/><line style="stroke:#181818;stroke-width:0.8000000000000002;" x1="20.8" x2="439.6" y1="1268.875" y2="1268.875"/><text fill="#000000" font-family="sans-serif" font-size="10.4" font-weight="bold" lengthAdjust="spacing" textLength="92.8" x="26.4" y="1264.6648">POST /auth/logout</text><text fill="#000000" font-family="sans-serif" font-size="10.4" lengthAdjust="spacing" textLength="193.6" x="122.4" y="1264.6648">-h Authorization "bearer &lt;access_token&gt;"</text><polygon fill="#181818" points="1068,1290.7078,1076,1293.9078,1068,1297.1078,1071.2,1293.9078" style="stroke:#181818;stroke-width:0.8000000000000002;"/><line style="stroke:#181818;stroke-width:0.8000000000000002;stroke-dasharray:2.0,2.0;" x1="444.4" x2="1072.8" y1="1293.9078" y2="1293.9078"/><text fill="#000000" font-family="sans-serif" font-size="10.4" lengthAdjust="spacing" textLength="29.6" x="450" y="1289.6977">user =</text><text fill="#000000" font-family="sans-serif" font-size="10.4" font-weight="bold" lengthAdjust="spacing" textLength="130.4" x="482.8" y="1289.6977">read_token(access_token)</text><polygon fill="#181818" points="1072,1315.7406,1080,1318.9406,1072,1322.1406,1075.2,1318.9406" style="stroke:#181818;stroke-width:0.8000000000000002;"/><line style="stroke:#181818;stroke-width:0.8000000000000002;stroke-dasharray:2.0,2.0;" x1="444.4" x2="1076.8" y1="1318.9406" y2="1318.9406"/><text fill="#000000" font-family="sans-serif" font-size="10.4" font-weight="bold" lengthAdjust="spacing" textLength="172" x="450" y="1314.7305">destroy_token(access_token, user)</text><line style="stroke:#A80036;stroke-width:1.6000000000000003;" x1="1074.4" x2="1088.8" y1="1311.7406" y2="1326.1406"/><line style="stroke:#A80036;stroke-width:1.6000000000000003;" x1="1074.4" x2="1088.8" y1="1326.1406" y2="1311.7406"/><path d="M448,1329.3406 L448,1350.9406 L684,1350.9406 L684,1337.3406 L676,1329.3406 L448,1329.3406 " fill="#FEFFDD" style="stroke:#181818;stroke-width:0.4000000000000001;"/><path d="M676,1329.3406 L676,1337.3406 L684,1337.3406 L676,1329.3406 " fill="#FEFFDD" style="stroke:#181818;stroke-width:0.4000000000000001;"/><text fill="#000000" font-family="sans-serif" font-size="10.4" lengthAdjust="spacing" textLength="219.2" x="452.8" y="1344.5633">? &#1053;&#1077;&#1087;&#1086;&#1085;&#1103;&#1090;&#1085;&#1086; &#1086;&#1090;&#1082;&#1091;&#1076;&#1072; &#1084;&#1099; &#1073;&#1077;&#1088;&#1077;&#1084; refresh_token ?</text><polygon fill="#181818" points="1216.4,1370.6063,1224.4,1373.8063,1216.4,1377.0063,1219.6,1373.8063" style="stroke:#181818;stroke-width:0.8000000000000002;"/><line style="stroke:#181818;stroke-width:0.8000000000000002;stroke-dasharray:2.0,2.0;" x1="444.4" x2="1221.2" y1="1373.8063" y2="1373.8063"/><text fill="#000000" font-family="sans-serif" font-size="10.4" font-weight="bold" lengthAdjust="spacing" textLength="173.6" x="450" y="1369.5961">destroy_token(refresh_token, user)</text><line style="stroke:#A80036;stroke-width:1.6000000000000003;" x1="1218.8" x2="1233.2" y1="1366.6063" y2="1381.0063"/><line style="stroke:#A80036;stroke-width:1.6000000000000003;" x1="1218.8" x2="1233.2" y1="1381.0063" y2="1366.6063"/><polygon fill="#181818" points="29.6,1395.6391,21.6,1398.8391,29.6,1402.0391,26.4,1398.8391" style="stroke:#181818;stroke-width:0.8000000000000002;"/><line style="stroke:#181818;stroke-width:0.8000000000000002;" x1="24.8" x2="443.6" y1="1398.8391" y2="1398.8391"/><text fill="#000000" font-family="sans-serif" font-size="10.4" lengthAdjust="spacing" textLength="86.4" x="34.4" y="1394.6289">204 NO CONTENT</text><text fill="#888888" font-family="sans-serif" font-size="8" lengthAdjust="spacing" textLength="68" x="1364.8" y="12.6328">19 &#1092;&#1077;&#1074;&#1088;&#1072;&#1083;&#1103; 2024</text><!--SRC=[pLRDRjj64BxpAGOiYaYi52b6seEW7xYsKQUjBSEMKBGe8Ap9jRG8nMLsLx9LMq3H7dle4_GTMg2v58dx2jGRTNPNb4XATkIUeeF07SxEppSpt_3PIAbODcgrE2IHcep3vpuVroHzCw6HJwi18qD1neupOW65AyxL9Rznv6iMnGJb81KLbAjPJC-uP8hn22wvKdoSqJaZGZ6VnMZ_Z0G1YuQmLy-y_vBVfF8NTUTPnlWoYXCg9HdI_P0D8n1qIeMaXqnGN_l3q2W9g81F0w9eoGq2EC4VV8y_j-mefa8A-nCrseyPMXHJvbF78RxY0Wv2HYFbE9WJkFZUTU9rhD17RNsfsHHyegY4sWGbikQrspczrFXQZw34gD4e00sOzN3XZ-YOI1V56DRCE3ZNEKgL5ycOHv8MRzlOvMQG9oH2U4HE_lLtlUV4HtNPuwzfjF5Eq2j1vSY-p3iwuG4D9QQ39LL3r6gtSo6dpz_o8OkEcKGaPsiJhHQSqo7JZI6XrN8S2p9KsobG3V2yi-v5RucJIBKz3twCgW7SQfWZCgOLGBXOM86OI7dDHL01dqTNJ8m7gMJkfEYZ_GoU3PYIaEcE6E0VWTRgN19M0xIyNBo-XB81EWQyvNc-eDgAFdjUAMUrx6IkR5WO4JcYmIfIOsoWXIjHANqeUrxUrD9MO-KViT62qWOq1I_bJJniCpLmSEoJ2TqOoYdRCccFU_KNS62y1kXM5uGXyWNFSrDfqm8xLJdKcgiAczEwhlCFbq4RqNtd6p1AY4gWZoIKhGrhkRmAWz00UnWeVJAchmN3WfgpXGMh4N55WIFJR0pIhGFuSotfk0suTKauT1lkySNUvr-u5N2H3F68rznvnUh6P1Po4cXb8p12xGabRh__wj2jhEMCA1H7_BfKpaZfJPnAuJEaIMGoF_DQy91gOqFTsIvqEXtpRkxCpM3gR3JbiIcYLym8Fi4PnyIAe6KPGdUFEJq9jXp7V1IumOmIKVa0DjcmDy4fTgZdIJAb0zE3Wv5bGuD71PfPgcbl6_8iXJR0ZdfEMB8yisrGz-frw7vZvjDM4qmjAccfx76-P6GJI96GbnjE9_7LKI_TRsFDDjMH6MGks4_4h7Nt4g73i9lP-S75a6x9RQEscbvCB5YsIlPw2idEVBKClLbTXvw18NS34-zKjmNbUKStCNuzG1Or32H0W0IVFJWUTtTt7njsM-1uYUJTFztlzuwxvwz-E3eqm8pj1rJQ2xOzikdlkAWp5F1ecZbDp3CxFF-FZvz2NWyEo20p4JXa-B6sw-f2rQVKzT5yTodiemOyRzcgMoxRFLr-k9qToz623KUhBrUd0yaVoTlat-G-UR_uVV5ByZwvX-GU7_vP_9hydVm9oRl5Rv3ybRnT_8oAxmhheBDcqcBa-IrI33rdPdlikIMolSmluRGB1ztJtj5fxpy0]--></g></svg>